<svg version="1.0" xmlns="http://www.w3.org/2000/svg"
 width="42.000000pt" height="43.000000pt" viewBox="0 0 42.000000 43.000000"
 preserveAspectRatio="xMidYMid meet">
 <title>Netive UI</title>
<g transform="translate(0.000000,43.000000) scale(0.100000,-0.100000)"
fill="#000000" stroke="none">
<path d="M138 410 c-45 -13 -87 -49 -110 -93 -19 -36 -23 -62 -26 -175 l-4
-132 71 0 71 0 0 115 c0 110 1 117 25 140 27 28 52 31 81 11 16 -12 20 -31 24
-138 l5 -123 68 -3 67 -3 0 128 c0 103 -4 136 -19 169 -40 87 -154 134 -253
104z"/>
</g>
</svg>
