<?xml version="1.0" standalone="no"?>
<!DOCTYPE svg PUBLIC "-//W3C//DTD SVG 20010904//EN"
 "http://www.w3.org/TR/2001/REC-SVG-20010904/DTD/svg10.dtd">
<svg version="1.0" xmlns="http://www.w3.org/2000/svg"
 width="48.000000pt" height="48.000000pt" viewBox="0 0 48.000000 48.000000"
 preserveAspectRatio="xMidYMid meet">

<g transform="translate(0.000000,48.000000) scale(0.100000,-0.100000)"
fill="#000000" stroke="none">
<path d="M140 330 c-87 -81 -93 -89 -67 -90 l27 0 0 -80 0 -80 60 0 60 0 0 60
c0 53 2 60 20 60 18 0 20 -7 20 -60 l0 -60 60 0 60 0 0 80 0 80 28 0 c25 1 19
9 -68 90 -52 49 -97 89 -100 89 -3 0 -48 -40 -100 -89z m153 -11 l47 -41 0
-79 c0 -72 -2 -79 -20 -79 -18 0 -20 7 -20 60 l0 60 -60 0 -60 0 0 -60 c0 -53
-2 -60 -20 -60 -18 0 -20 7 -20 79 l0 79 48 41 c26 23 49 41 52 41 3 0 26 -18
53 -41z"/>
</g>
</svg>
