<svg width="598" height="61" viewBox="0 0 598 61" fill="none" xmlns="http://www.w3.org/2000/svg">
<rect width="48" height="48" fill="#FF0000" fill-opacity="0.1"/>
<path d="M10.0002 29.4545H37.5456C38.6501 29.4545 39.5456 28.5591 39.5456 27.4545V11C39.5456 8.79086 37.7547 7 35.5456 7H11.9092C10.0013 7 8.45465 8.54665 8.45465 10.4545V10.4545V11.5" stroke="#4D4F58" stroke-width="2" stroke-linecap="round"/>
<path d="M11.5 16.5L14.5 19.5L11.5 22.5" stroke="#14A1EB" stroke-width="2" stroke-linecap="round" stroke-linejoin="round"/>
<path d="M9 19.5L2 19.5" stroke="#14A1EB" stroke-width="2" stroke-linecap="round" stroke-linejoin="round" stroke-dasharray="0.1 3"/>
<path d="M18 24C18 24.5523 18.4477 25 19 25C19.5523 25 20 24.5523 20 24H18ZM28 24C28 24.5523 28.4477 25 29 25C29.5523 25 30 24.5523 30 24H28ZM20 24C20 21.7913 21.7913 20 24 20V18C20.6867 18 18 20.6867 18 24H20ZM24 20C26.2087 20 28 21.7913 28 24H30C30 20.6867 27.3133 18 24 18V20ZM26 16C26 17.1047 25.1047 18 24 18V20C26.2093 20 28 18.2093 28 16H26ZM24 18C22.8953 18 22 17.1047 22 16H20C20 18.2093 21.7907 20 24 20V18ZM22 16C22 14.8953 22.8953 14 24 14V12C21.7907 12 20 13.7907 20 16H22ZM24 14C25.1047 14 26 14.8953 26 16H28C28 13.7907 26.2093 12 24 12V14Z" fill="#14A1EB"/>
<path d="M39.9599 30.9051C39.7146 30.0465 38.9298 29.4546 38.0369 29.4546H9.96315C9.07019 29.4546 8.28542 30.0465 8.0401 30.9051L5.72841 38.9961C5.36337 40.2737 6.3227 41.5455 7.65146 41.5455H40.3485C41.6773 41.5455 42.6366 40.2737 42.2716 38.9961L39.9599 30.9051Z" stroke="#4D4F58" stroke-width="2" stroke-linecap="round"/>
<path d="M16.9199 54.7578H16.5039V59H16.9199V54.7578ZM19.1875 59C20.4678 59 21.1943 58.2031 21.1973 56.8672C21.1973 55.5488 20.4766 54.7578 19.2578 54.7578H17.9277V59H19.1875ZM18.3438 58.625V55.1328H19.2344C20.251 55.1299 20.7871 55.7832 20.7871 56.8672C20.79 57.9629 20.2422 58.625 19.1641 58.625H18.3438ZM26.4531 56.7793H21.7422V57.0957H26.4531V56.7793ZM22.3164 58.5195C22.3164 59.1084 22.9844 59.4395 24.0977 59.4395C25.2021 59.4395 25.8672 59.1084 25.8672 58.5195C25.8672 57.9277 25.2021 57.5908 24.0977 57.5879C22.9844 57.5908 22.3164 57.9277 22.3164 58.5195ZM22.3457 56.2402H25.8965V55.9355H22.709V54.834H25.8613V54.5176H22.3457V56.2402ZM22.6914 58.5195C22.6914 58.127 23.2305 57.8896 24.0977 57.8867C24.9561 57.8896 25.4951 58.127 25.498 58.5195C25.4951 58.9092 24.9561 59.1406 24.0977 59.1406C23.2305 59.1406 22.6914 58.9092 22.6914 58.5195ZM31.6504 57.1543H29.4648V56.5508H31.1465V56.2461H27.9062V55.6309H31.0352V54.4297H27.5254V54.7344H30.666V55.3438H27.543V56.5508H29.1016V57.1543H26.9219V57.4707H31.6504V57.1543ZM27.4492 58.209H30.6895V59.3984H31.0645V57.8984H27.4492V58.209Z" fill="#1A1D29"/>
<g clip-path="url(#clip0_9685_71422)">
<rect width="48" height="48" transform="translate(50)" fill="#FF0000" fill-opacity="0.1"/>
<path d="M57 19V11C57 8.791 58.791 7 61 7H87C89.209 7 91 8.791 91 11V37C91 39.209 89.209 41 87 41H61C58.791 41 57 39.209 57 37V25" stroke="#4D4F58" stroke-width="2" stroke-linecap="round"/>
<path d="M91 19H57" stroke="#4D4F58" stroke-width="2" stroke-linecap="round"/>
<path fill-rule="evenodd" clip-rule="evenodd" d="M75 28C75 28.553 74.553 29 74 29C73.447 29 73 28.553 73 28C73 27.447 73.447 27 74 27C74.553 27 75 27.447 75 28" fill="#14A1EB"/>
<path fill-rule="evenodd" clip-rule="evenodd" d="M75 28C75 28.553 74.553 29 74 29C73.447 29 73 28.553 73 28C73 27.447 73.447 27 74 27C74.553 27 75 27.447 75 28Z" fill="#14A1EB" stroke="#14A1EB" stroke-width="2"/>
<path fill-rule="evenodd" clip-rule="evenodd" d="M74 29V33Z" fill="#14A1EB"/>
<path d="M74 29V33" stroke="#14A1EB" stroke-width="2" stroke-linecap="round"/>
<path fill-rule="evenodd" clip-rule="evenodd" d="M64 13C63.447 13 63 13.447 63 14C63 14.553 63.447 15 64 15C64.553 15 65 14.553 65 14C65 13.447 64.553 13 64 13" fill="#4D4F58"/>
<path fill-rule="evenodd" clip-rule="evenodd" d="M68 13C67.447 13 67 13.447 67 14C67 14.553 67.447 15 68 15C68.553 15 69 14.553 69 14C69 13.447 68.553 13 68 13" fill="#4D4F58"/>
<path fill-rule="evenodd" clip-rule="evenodd" d="M72 13C71.447 13 71 13.447 71 14C71 14.553 71.447 15 72 15C72.553 15 73 14.553 73 14C73 13.447 72.553 13 72 13" fill="#4D4F58"/>
</g>
<path d="M61.4199 54.7578H61.0039V59H61.4199V54.7578ZM63.6875 59C64.9678 59 65.6943 58.2031 65.6973 56.8672C65.6973 55.5488 64.9766 54.7578 63.7578 54.7578H62.4277V59H63.6875ZM62.8438 58.625V55.1328H63.7344C64.751 55.1299 65.2871 55.7832 65.2871 56.8672C65.29 57.9629 64.7422 58.625 63.6641 58.625H62.8438ZM70.4844 54.2891H70.1152V59.4629H70.4844V54.2891ZM66.5527 58.1973H68.9668V54.7344H68.5977V56.1348H66.9219V54.7344H66.5527V58.1973ZM66.9219 57.8867V56.4395H68.5977V57.8867H66.9219ZM74.0938 54.582H71.7031V56.668H74.0938V54.582ZM72.0605 56.3691V54.8926H73.7363V56.3691H72.0605ZM72.3477 57.541H75.3125V58.1445H72.3535V59.3926H75.8691V59.082H72.7168V58.4199H75.6699V57.2363H72.3477V57.541ZM75.3066 56.9668H75.6699V54.2891H75.3066V56.9668ZM80.873 54.2891H80.5039V55.7715H79.1973V54.6348H78.8281V55.5957H77.252V54.6348H76.8828V57.2129H79.1973V56.0879H80.5039V58.1211H80.873V54.2891ZM77.252 56.9023V55.8887H78.8281V56.9023H77.252ZM77.5625 59.334H80.9961V59.0234H77.9316V57.7461H77.5625V59.334ZM86.252 55.0859H84.3359V54.3828H83.9727V55.0859H82.0449V55.4023H86.252V55.0859ZM81.7988 58.8184H86.5332V58.5078H84.3359V57.7373C85.2617 57.6992 85.833 57.3447 85.8359 56.7617C85.833 56.1494 85.1855 55.792 84.1543 55.7949C83.1113 55.792 82.4697 56.1494 82.4727 56.7617C82.4697 57.3447 83.0381 57.6992 83.9727 57.7373V58.5078H81.7988V58.8184ZM82.8418 56.7617C82.8389 56.3486 83.3486 56.0908 84.1543 56.0938C84.9512 56.0908 85.4609 56.3486 85.4609 56.7617C85.4609 57.1807 84.9512 57.4355 84.1543 57.4355C83.3486 57.4355 82.8389 57.1807 82.8418 56.7617Z" fill="#1A1D29"/>
<g clip-path="url(#clip1_9685_71422)">
<rect width="48" height="48" transform="translate(100)" fill="#FF0000" fill-opacity="0.1"/>
<path d="M122.006 41H111C108.791 41 107 39.209 107 37V11C107 8.791 108.791 7 111 7H137C139.209 7 141 8.791 141 11V20" stroke="#4D4F58" stroke-width="2" stroke-linecap="round"/>
<path d="M115 17H129" stroke="#4D4F58" stroke-width="2" stroke-linecap="round"/>
<path d="M115 23H123" stroke="#4D4F58" stroke-width="2" stroke-linecap="round"/>
<path d="M140.581 33.4269C140.358 32.9213 139.768 32.6914 139.263 32.9135C138.757 33.1357 138.527 33.7256 138.749 34.2313L140.581 33.4269ZM142.154 39.4951L142.281 40.487C142.594 40.4468 142.869 40.2616 143.024 39.9873C143.18 39.7129 143.196 39.3815 143.07 39.0929L142.154 39.4951ZM139.055 39.8931L138.928 38.9012C138.737 38.9257 138.557 39.0047 138.41 39.1286L139.055 39.8931ZM136.662 41.9111L135.746 42.3133C135.873 42.6019 136.129 42.8139 136.436 42.8852C136.743 42.9565 137.066 42.8788 137.307 42.6756L136.662 41.9111ZM135.088 35.8409C134.865 35.3352 134.275 35.1054 133.77 35.3276C133.264 35.5497 133.034 36.1397 133.256 36.6453L135.088 35.8409ZM131.251 34.2313C131.474 33.7256 131.244 33.1357 130.738 32.9135C130.232 32.6914 129.642 32.9213 129.42 33.4269L131.251 34.2313ZM127.847 39.4951L126.931 39.0929C126.805 39.3815 126.821 39.7129 126.976 39.9873C127.132 40.2616 127.407 40.4468 127.72 40.487L127.847 39.4951ZM130.946 39.8931L131.591 39.1286C131.444 39.0047 131.264 38.9257 131.073 38.9012L130.946 39.8931ZM133.339 41.9111L132.694 42.6756C132.935 42.8788 133.258 42.9565 133.565 42.8852C133.872 42.8139 134.128 42.6019 134.254 42.3133L133.339 41.9111ZM136.744 36.6453C136.967 36.1397 136.737 35.5497 136.231 35.3276C135.725 35.1054 135.135 35.3352 134.913 35.8409L136.744 36.6453ZM138.749 34.2313L141.238 39.8973L143.07 39.0929L140.581 33.4269L138.749 34.2313ZM142.027 38.5032L138.928 38.9012L139.182 40.885L142.281 40.487L142.027 38.5032ZM138.41 39.1286L136.017 41.1466L137.307 42.6756L139.7 40.6576L138.41 39.1286ZM137.578 41.5089L135.088 35.8409L133.256 36.6453L135.746 42.3133L137.578 41.5089ZM129.42 33.4269L126.931 39.0929L128.762 39.8973L131.251 34.2313L129.42 33.4269ZM127.72 40.487L130.819 40.885L131.073 38.9012L127.974 38.5032L127.72 40.487ZM130.301 40.6576L132.694 42.6756L133.984 41.1466L131.591 39.1286L130.301 40.6576ZM134.254 42.3133L136.744 36.6453L134.913 35.8409L132.423 41.5089L134.254 42.3133ZM140 30C140 32.7607 137.761 35 135 35V37C138.865 37 142 33.8653 142 30H140ZM135 35C132.239 35 130 32.7607 130 30H128C128 33.8653 131.135 37 135 37V35ZM130 30C130 27.2393 132.239 25 135 25V23C131.135 23 128 26.1347 128 30H130ZM135 25C137.761 25 140 27.2393 140 30H142C142 26.1347 138.865 23 135 23V25Z" fill="#14A1EB"/>
</g>
<path d="M118.135 54.2891H117.777V59.457H118.135V54.2891ZM113.752 58.0566L113.975 58.3262C114.956 57.7373 115.539 56.9404 115.791 56.0586H116.74V57.0488H115.709V57.3594H116.74V59.1816H117.098V54.4355H116.74V55.748H115.867C115.92 55.4902 115.943 55.2236 115.943 54.957H113.957V55.2734H115.583C115.498 56.3721 114.897 57.3711 113.752 58.0566ZM120.689 55.2207V55.1035H121.891V54.793H119.107V55.1035H120.314V55.2207C120.314 55.9648 119.711 56.5742 118.961 56.8145L119.148 57.1133C119.767 56.8994 120.285 56.4541 120.505 55.8623C120.725 56.4131 121.223 56.8291 121.826 57.0254L122.008 56.7324C121.272 56.501 120.684 55.915 120.689 55.2207ZM118.85 58.0215L118.908 58.3379C119.816 58.3379 121.059 58.3379 122.184 58.1445L122.154 57.8633C121.688 57.9307 121.185 57.9688 120.689 57.9893V56.8965H120.32V58.0039C119.79 58.0215 119.28 58.0215 118.85 58.0215ZM122.506 59.457H122.869V56.791H123.76V56.4688H122.869V54.2891H122.506V59.457ZM128.5 54.2891H128.137V56.416H127.334V54.4297H126.982V59.1875H127.334V56.7266H128.137V59.457H128.5V54.2891ZM124.123 58.0625L124.346 58.332C125.843 57.5029 126.314 56.2432 126.314 54.9688H124.305V55.2793H125.954C125.89 56.3633 125.383 57.374 124.123 58.0625ZM133.545 54.2891H133.176V55.2969H131.969V55.6074H133.176V56.9727H133.545V54.2891ZM129.291 56.6797L129.496 56.9785C130.105 56.7471 130.601 56.2754 130.817 55.6572C131.043 56.2051 131.532 56.6328 132.104 56.8438L132.309 56.5508C131.576 56.3047 130.981 55.6748 130.984 54.9746V54.4473H130.633V54.9746C130.627 55.7627 130.044 56.416 129.291 56.6797ZM130.223 57.5586H133.182V58.1387H130.24V59.3809H133.756V59.0762H130.598V58.4316H133.545V57.2539H130.223V57.5586Z" fill="#1A1D29"/>
<g clip-path="url(#clip2_9685_71422)">
<rect width="48" height="48" transform="translate(150)" fill="#FF0000" fill-opacity="0.1"/>
<path opacity="0.01" fill-rule="evenodd" clip-rule="evenodd" d="M150 48H198V0H150V48Z" fill="#FF0000"/>
<path d="M182 27H179" stroke="#4D4F58" stroke-width="2" stroke-linecap="round"/>
<path d="M169 27H166" stroke="#4D4F58" stroke-width="2" stroke-linecap="round"/>
<path d="M168 24L171 32L174 24L177.001 32L179.999 24" stroke="#4D4F58" stroke-width="2" stroke-linecap="round" stroke-linejoin="round"/>
<path d="M174 41.0002C162 41.0002 157.994 37.0002 157.997 30.0032C157.999 23.0922 163.235 18.7622 165.938 16.1262C166.683 15.4002 167.68 15.0002 168.72 15.0002H179.279C180.319 15.0002 181.316 15.4002 182.061 16.1262C184.764 18.7622 190 23.0922 190 30.0002" stroke="#4D4F58" stroke-width="2" stroke-linecap="round"/>
<path d="M181 15L183.623 9.88104C183.856 9.42704 183.712 8.87504 183.288 8.59104C181.979 7.71704 178.869 6.23904 173.967 7.46904C170.899 8.23904 167.684 8.64604 165.448 8.86804C164.75 8.93804 164.341 9.68304 164.655 10.31L166 12" stroke="#4D4F58" stroke-width="2" stroke-linecap="round" stroke-linejoin="round"/>
<path d="M192 34L186 40L183 37L178 42" stroke="#14A1EB" stroke-width="2" stroke-linecap="round" stroke-linejoin="round"/>
<path d="M188 34H192V38" stroke="#14A1EB" stroke-width="2" stroke-linecap="round" stroke-linejoin="round"/>
</g>
<path d="M161.635 54.2891H161.277V59.457H161.635V54.2891ZM157.252 58.0566L157.475 58.3262C158.456 57.7373 159.039 56.9404 159.291 56.0586H160.24V57.0488H159.209V57.3594H160.24V59.1816H160.598V54.4355H160.24V55.748H159.367C159.42 55.4902 159.443 55.2236 159.443 54.957H157.457V55.2734H159.083C158.998 56.3721 158.397 57.3711 157.252 58.0566ZM164.189 55.2207V55.1035H165.391V54.793H162.607V55.1035H163.814V55.2207C163.814 55.9648 163.211 56.5742 162.461 56.8145L162.648 57.1133C163.267 56.8994 163.785 56.4541 164.005 55.8623C164.225 56.4131 164.723 56.8291 165.326 57.0254L165.508 56.7324C164.772 56.501 164.184 55.915 164.189 55.2207ZM162.35 58.0215L162.408 58.3379C163.316 58.3379 164.559 58.3379 165.684 58.1445L165.654 57.8633C165.188 57.9307 164.685 57.9688 164.189 57.9893V56.8965H163.82V58.0039C163.29 58.0215 162.78 58.0215 162.35 58.0215ZM166.006 59.457H166.369V56.791H167.26V56.4688H166.369V54.2891H166.006V59.457ZM171.842 54.2891H171.473V59.4629H171.842V54.2891ZM167.805 56.4863C167.805 57.5762 168.347 58.2734 169.111 58.2734C169.87 58.2734 170.418 57.5762 170.418 56.4863C170.418 55.3994 169.87 54.7021 169.111 54.6992C168.347 54.7021 167.805 55.3994 167.805 56.4863ZM168.162 56.4863C168.162 55.6221 168.552 55.0303 169.111 55.0273C169.671 55.0303 170.058 55.6221 170.055 56.4863C170.058 57.3506 169.671 57.9453 169.111 57.9453C168.552 57.9453 168.162 57.3506 168.162 56.4863ZM174.268 55.8887V55.584H175.287V55.2734H174.273V54.4824H173.916V55.2734H172.885V55.584H173.916V55.8887C173.91 56.7588 173.453 57.6816 172.762 58.0859L172.99 58.3672C173.518 58.0449 173.913 57.4238 174.095 56.7236C174.282 57.3828 174.684 57.96 175.211 58.2559L175.428 57.9746C174.736 57.6025 174.265 56.7295 174.268 55.8887ZM174.912 56.6738H175.791V59.1758H176.143V54.4238H175.791V56.3574H174.912V56.6738ZM176.828 59.457H177.186V54.2891H176.828V59.457ZM178.328 57.2129C178.328 58.2119 178.592 59.0938 179.072 59.8672H179.43C179.031 59.2314 178.741 58.1738 178.738 57.2129C178.741 56.2549 179.028 55.1943 179.43 54.5586H179.072C178.592 55.3291 178.328 56.2109 178.328 57.2129ZM180.613 54.7578H180.197V59H180.613V54.7578ZM181.621 59H182.037V57.3008H183.016C183.065 57.3008 183.115 57.2979 183.162 57.2949L184.082 59H184.562L183.59 57.2158C184.12 57.04 184.39 56.6035 184.387 56.0352C184.39 55.2881 183.924 54.7578 183.01 54.7578H181.621V59ZM182.037 56.9199V55.1328H182.992C183.66 55.1299 183.977 55.4902 183.977 56.0352C183.977 56.5801 183.66 56.9199 182.998 56.9199H182.037ZM185.219 59H185.635V57.3945H186.613C187.521 57.3945 187.987 56.8203 187.984 56.0762C187.987 55.3291 187.521 54.7578 186.607 54.7578H185.219V59ZM185.635 57.0195V55.1328H186.59C187.258 55.1299 187.574 55.5283 187.574 56.0762C187.574 56.6182 187.258 57.0225 186.596 57.0195H185.635ZM189.643 57.2129C189.643 56.2139 189.379 55.332 188.898 54.5586H188.541C188.939 55.1943 189.229 56.252 189.232 57.2129C189.229 58.1709 188.942 59.2314 188.541 59.8672H188.898C189.379 59.0967 189.643 58.2148 189.643 57.2129Z" fill="#1A1D29"/>
<g clip-path="url(#clip3_9685_71422)">
<rect width="48" height="48" transform="translate(200)" fill="#FF0000" fill-opacity="0.1"/>
<path opacity="0.01" fill-rule="evenodd" clip-rule="evenodd" d="M200 48H248V0H200V48Z" fill="#FF0000"/>
<path d="M206 23C206 20.7909 207.791 19 210 19H238C240.209 19 242 20.7909 242 23V35C242 37.2091 240.209 39 238 39H210C207.791 39 206 37.2091 206 35V23Z" stroke="#4D4F58" stroke-width="2" stroke-linecap="round"/>
<path d="M209.999 12.5C209.447 12.5 208.999 12.9477 208.999 13.5C208.999 14.0523 209.447 14.5 209.999 14.5V12.5ZM235.999 14.5C236.551 14.5 236.999 14.0523 236.999 13.5C236.999 12.9477 236.551 12.5 235.999 12.5V14.5ZM209.999 14.5H235.999V12.5H209.999V14.5Z" fill="#4D4F58"/>
<path d="M214.001 7.5C213.449 7.5 213.001 7.94772 213.001 8.5C213.001 9.05228 213.449 9.5 214.001 9.5V7.5ZM232.001 9.5C232.553 9.5 233.001 9.05228 233.001 8.5C233.001 7.94772 232.553 7.5 232.001 7.5V9.5ZM214.001 9.5H232.001V7.5H214.001V9.5Z" fill="#4D4F58"/>
<path fill-rule="evenodd" clip-rule="evenodd" d="M214 29C214 29.552 213.552 30 213 30C212.448 30 212 29.552 212 29C212 28.448 212.448 28 213 28C213.552 28 214 28.448 214 29Z" fill="#14A1EB"/>
<path fill-rule="evenodd" clip-rule="evenodd" d="M235.999 29C235.999 29.552 235.551 30 234.999 30C234.447 30 233.999 29.552 233.999 29C233.999 28.448 234.447 28 234.999 28C235.551 28 235.999 28.448 235.999 29Z" fill="#14A1EB"/>
<path d="M229.001 28.2498H226.938" stroke="#14A1EB" stroke-width="2" stroke-linecap="round"/>
<path d="M220.062 28.2498H218" stroke="#14A1EB" stroke-width="2" stroke-linecap="round"/>
<path d="M219.374 25.9998L221.437 31.9998L223.499 25.9998L225.562 31.9998L227.623 25.9998" stroke="#14A1EB" stroke-width="2" stroke-linecap="round" stroke-linejoin="round"/>
</g>
<path d="M210.635 54.2891H210.277V59.457H210.635V54.2891ZM206.252 58.0566L206.475 58.3262C207.456 57.7373 208.039 56.9404 208.291 56.0586H209.24V57.0488H208.209V57.3594H209.24V59.1816H209.598V54.4355H209.24V55.748H208.367C208.42 55.4902 208.443 55.2236 208.443 54.957H206.457V55.2734H208.083C207.998 56.3721 207.397 57.3711 206.252 58.0566ZM213.189 55.2207V55.1035H214.391V54.793H211.607V55.1035H212.814V55.2207C212.814 55.9648 212.211 56.5742 211.461 56.8145L211.648 57.1133C212.267 56.8994 212.785 56.4541 213.005 55.8623C213.225 56.4131 213.723 56.8291 214.326 57.0254L214.508 56.7324C213.772 56.501 213.184 55.915 213.189 55.2207ZM211.35 58.0215L211.408 58.3379C212.316 58.3379 213.559 58.3379 214.684 58.1445L214.654 57.8633C214.188 57.9307 213.685 57.9688 213.189 57.9893V56.8965H212.82V58.0039C212.29 58.0215 211.78 58.0215 211.35 58.0215ZM215.006 59.457H215.369V56.791H216.26V56.4688H215.369V54.2891H215.006V59.457ZM220.842 54.2891H220.473V59.4629H220.842V54.2891ZM216.805 56.4863C216.805 57.5762 217.347 58.2734 218.111 58.2734C218.87 58.2734 219.418 57.5762 219.418 56.4863C219.418 55.3994 218.87 54.7021 218.111 54.6992C217.347 54.7021 216.805 55.3994 216.805 56.4863ZM217.162 56.4863C217.162 55.6221 217.552 55.0303 218.111 55.0273C218.671 55.0303 219.058 55.6221 219.055 56.4863C219.058 57.3506 218.671 57.9453 218.111 57.9453C217.552 57.9453 217.162 57.3506 217.162 56.4863ZM223.268 55.8887V55.584H224.287V55.2734H223.273V54.4824H222.916V55.2734H221.885V55.584H222.916V55.8887C222.91 56.7588 222.453 57.6816 221.762 58.0859L221.99 58.3672C222.518 58.0449 222.913 57.4238 223.095 56.7236C223.282 57.3828 223.684 57.96 224.211 58.2559L224.428 57.9746C223.736 57.6025 223.265 56.7295 223.268 55.8887ZM223.912 56.6738H224.791V59.1758H225.143V54.4238H224.791V56.3574H223.912V56.6738ZM225.828 59.457H226.186V54.2891H225.828V59.457ZM227.328 57.2129C227.328 58.2119 227.592 59.0938 228.072 59.8672H228.43C228.031 59.2314 227.741 58.1738 227.738 57.2129C227.741 56.2549 228.028 55.1943 228.43 54.5586H228.072C227.592 55.3291 227.328 56.2109 227.328 57.2129ZM233.182 54.2891H232.812V55.1328H231.415C231.181 54.8164 230.794 54.626 230.34 54.623C229.569 54.6289 229.007 55.1533 229.01 55.9062C229.007 56.6592 229.569 57.1836 230.34 57.1836C230.8 57.1836 231.189 56.9902 231.424 56.668H232.812V58.127H233.182V54.2891ZM229.361 55.9062C229.364 55.3643 229.771 54.96 230.34 54.957C230.891 54.96 231.307 55.3643 231.307 55.9062C231.307 56.4512 230.891 56.8555 230.34 56.8555C229.771 56.8555 229.364 56.4512 229.361 55.9062ZM229.9 59.334H233.334V59.0234H230.27V57.7168H229.9V59.334ZM231.585 55.4434H232.812V56.3574H231.588C231.638 56.2197 231.664 56.0674 231.664 55.9062C231.664 55.7393 231.635 55.584 231.585 55.4434ZM238.203 54.5762H234.717V54.8867H237.834V54.9512C237.837 55.3525 237.837 55.8301 237.682 56.498H234.107V56.8086H238.842V56.498H238.054C238.2 55.8359 238.2 55.3525 238.203 54.9512V54.5762ZM234.699 59.3809H238.232V57.5703H234.699V59.3809ZM235.062 59.0762V57.8691H237.869V59.0762H235.062ZM240.43 57.2129C240.43 56.2139 240.166 55.332 239.686 54.5586H239.328C239.727 55.1943 240.017 56.252 240.02 57.2129C240.017 58.1709 239.729 59.2314 239.328 59.8672H239.686C240.166 59.0967 240.43 58.2148 240.43 57.2129Z" fill="#1A1D29"/>
<g clip-path="url(#clip4_9685_71422)">
<rect width="48" height="48" transform="translate(250)" fill="#FF0000" fill-opacity="0.1"/>
<path opacity="0.01" fill-rule="evenodd" clip-rule="evenodd" d="M250 48H298V0H250V48Z" fill="#FF0000"/>
<path d="M288 32.8745H286.5" stroke="#14A1EB" stroke-width="2" stroke-linecap="round"/>
<path d="M281.5 32.8745H280" stroke="#14A1EB" stroke-width="2" stroke-linecap="round"/>
<path d="M281 30.9995L282.5 35.9995L284 30.9995L285.5 35.9995L286.999 30.9995" stroke="#14A1EB" stroke-width="2" stroke-linecap="round" stroke-linejoin="round"/>
<path d="M272 12.4995V23.4995L266 29.4995" stroke="#4D4F58" stroke-width="2" stroke-linecap="round" stroke-linejoin="round"/>
<path d="M285.592 18.2943C285.169 17.9393 284.538 17.9944 284.183 18.4175C283.828 18.8406 283.884 19.4713 284.307 19.8263L285.592 18.2943ZM287.997 21.6176L287.354 22.3836C287.572 22.5664 287.858 22.6478 288.139 22.6074C288.421 22.567 288.672 22.4086 288.829 22.1718L287.997 21.6176ZM291.048 18.8401C291.354 18.3804 291.23 17.7596 290.77 17.4535C290.31 17.1473 289.689 17.2718 289.383 17.7315L291.048 18.8401ZM284.307 19.8263L287.354 22.3836L288.64 20.8515L285.592 18.2943L284.307 19.8263ZM288.829 22.1718L291.048 18.8401L289.383 17.7315L287.165 21.0633L288.829 22.1718Z" fill="#4D4F58"/>
<path d="M273.499 38.9452C273.055 38.9815 272.606 39 272.153 39C263.232 39 256 31.8366 256 23C256 14.1634 263.232 7 272.153 7C279.999 7 286.538 12.5415 288 19.8889" stroke="#4D4F58" stroke-width="2" stroke-linecap="round" stroke-linejoin="round"/>
<circle cx="272" cy="23" r="2" fill="#4D4F58"/>
<circle cx="284" cy="32.9995" r="8" stroke="#4D4F58" stroke-width="2"/>
</g>
<path d="M268.566 57.5645C267.465 57.5674 266.768 57.9131 266.768 58.5078C266.768 59.0938 267.465 59.4395 268.566 59.4395C269.671 59.4395 270.371 59.0938 270.377 58.5078C270.371 57.9131 269.671 57.5674 268.566 57.5645ZM266.229 57.0371H270.939V56.7324H268.602V55.7012H268.238V56.7324H266.229V57.0371ZM266.797 54.8691H269.961V55.0039C269.961 55.4111 269.961 55.7949 269.82 56.3281L270.184 56.3691C270.324 55.8359 270.324 55.4229 270.324 55.0039V54.5586H266.797V54.8691ZM267.137 58.5078C267.131 58.1123 267.708 57.8604 268.566 57.8574C269.431 57.8604 269.999 58.1123 270.002 58.5078C269.999 58.8916 269.431 59.1406 268.566 59.1406C267.708 59.1406 267.131 58.8916 267.137 58.5078ZM276.148 58.4551H273.951V57.125H275.545V54.7344H271.988V57.125H273.582V58.4551H271.414V58.7715H276.148V58.4551ZM272.346 56.8262V55.0391H275.182V56.8262H272.346ZM279.154 55.0156V54.9336H280.848V54.6289H277.051V54.9336H278.75V55.0156C278.747 55.7598 277.716 56.3516 276.898 56.4805L277.045 56.7734C277.795 56.6357 278.642 56.1934 278.952 55.543C279.263 56.1934 280.109 56.6357 280.871 56.7734L281.012 56.4805C280.186 56.3516 279.151 55.7598 279.154 55.0156ZM276.6 57.5762H278.768V59.4512H279.125V57.5762H281.311V57.2598H276.6V57.5762Z" fill="#1A1D29"/>
<rect width="48" height="48" transform="translate(300)" fill="#FF0000" fill-opacity="0.1"/>
<path d="M323 43H315C312.791 43 311 41.2091 311 39V9C311 6.79086 312.791 5 315 5H332C334.209 5 336 6.79086 336 9V24.6685" stroke="#4D4F58" stroke-width="2" stroke-linecap="round"/>
<path d="M324.837 32.4375C324.555 33.0054 324.336 33.6163 324.192 34.2633C323.234 38.5753 325.951 42.8486 330.263 43.8075C334.575 44.7669 338.848 42.0488 339.807 37.7368C340.767 33.4248 338.049 29.1515 333.737 28.1926C331.115 27.6092 328.507 28.3859 326.65 30.054" stroke="#14A1EB" stroke-width="2" stroke-linecap="round" stroke-linejoin="round"/>
<path d="M328.723 36.0908L331.348 38.7158L335.723 33.9033" stroke="#14A1EB" stroke-width="2" stroke-linecap="round" stroke-linejoin="round"/>
<path d="M317.5 9H325.214" stroke="#4D4F58" stroke-width="1.5" stroke-linecap="round" stroke-linejoin="round"/>
<rect x="327.182" y="8" width="2" height="2" rx="1" fill="#4D4F58"/>
<path d="M317.836 54.834H314.232V55.1445H317.479V55.4316C317.476 56.0879 317.476 56.7529 317.291 57.6465L317.654 57.6934C317.836 56.7588 317.836 56.1055 317.836 55.4316V54.834ZM313.729 58.6895H318.439V58.373H316.605V56.6445H316.242V58.373H315.316V56.6445H314.947V58.373H313.729V58.6895ZM320.396 55.8887V55.584H321.416V55.2734H320.402V54.4824H320.045V55.2734H319.014V55.584H320.045V55.8887C320.039 56.7588 319.582 57.6816 318.891 58.0859L319.119 58.3672C319.646 58.0449 320.042 57.4238 320.224 56.7236C320.411 57.3828 320.812 57.96 321.34 58.2559L321.557 57.9746C320.865 57.6025 320.394 56.7295 320.396 55.8887ZM321.041 56.6738H321.92V59.1758H322.271V54.4238H321.92V56.3574H321.041V56.6738ZM322.957 59.457H323.314V54.2891H322.957V59.457ZM328.512 54.2891H328.154V56.3574H327.346V54.4062H326.994V59.1875H327.346V56.6738H328.154V59.457H328.512V54.2891ZM324.305 58.0332H326.262V54.9102H324.305V58.0332ZM324.65 57.7285V55.2148H325.91V57.7285H324.65ZM333.697 54.2891H333.34V56.3574H332.531V54.4062H332.18V59.1875H332.531V56.6738H333.34V59.457H333.697V54.2891ZM329.49 58.0332H331.447V54.9102H329.49V58.0332ZM329.836 57.7285V55.2148H331.096V57.7285H329.836Z" fill="#1A1D29"/>
<rect width="48" height="48" transform="translate(350)" fill="#FF0000" fill-opacity="0.1"/>
<rect x="361" y="3" width="26" height="42" rx="3" stroke="#4D4F58" stroke-width="2"/>
<path d="M368 22H378" stroke="#14A1EB" stroke-width="2" stroke-linecap="round" stroke-linejoin="round"/>
<path d="M377 25L380 22L377 19" stroke="#14A1EB" stroke-width="2" stroke-linecap="round" stroke-linejoin="round"/>
<path d="M380 30H369" stroke="#14A1EB" stroke-width="2" stroke-linecap="round" stroke-linejoin="round"/>
<path d="M371 33L368 30L371 27" stroke="#14A1EB" stroke-width="2" stroke-linecap="round" stroke-linejoin="round"/>
<path d="M368.5 7H376.214" stroke="#4D4F58" stroke-width="1.5" stroke-linecap="round" stroke-linejoin="round"/>
<rect x="378.182" y="6" width="2" height="2" rx="1" fill="#4D4F58"/>
<path d="M365.963 58.4551H363.766V57.125H365.359V54.7344H361.803V57.125H363.396V58.4551H361.229V58.7715H365.963V58.4551ZM362.16 56.8262V55.0391H364.996V56.8262H362.16ZM370.656 54.2891H370.287V57.418H370.656V54.2891ZM366.748 56.9082H367.158C368.146 56.9111 368.887 56.8525 369.73 56.6738L369.672 56.3516C368.863 56.5332 368.128 56.5859 367.158 56.5859H367.123V54.6348H366.748V56.9082ZM367.205 58.4434C367.205 59.0732 367.867 59.4395 368.945 59.4395C370.015 59.4395 370.674 59.0732 370.674 58.4434C370.674 57.8105 370.015 57.4414 368.945 57.4414C367.867 57.4414 367.205 57.8105 367.205 58.4434ZM367.58 58.4434C367.574 58.0127 368.107 57.752 368.945 57.752C369.774 57.752 370.305 58.0127 370.311 58.4434C370.305 58.8682 369.774 59.1348 368.945 59.1348C368.107 59.1348 367.574 58.8682 367.58 58.4434ZM376.334 58.4316H371.6V58.7422H376.334V58.4316ZM372.174 57.3359H375.736V54.6699H375.373V55.6719H372.549V54.6699H372.174V57.3359ZM372.549 57.0371V55.9766H375.373V57.0371H372.549ZM381.033 54.2891H380.67V59.4629H381.033V54.2891ZM377.084 55.0977H379.1V56.2637H377.09V58.1973H377.518C378.388 58.1973 379.179 58.1562 380.16 58.0039L380.125 57.6875C379.155 57.8428 378.37 57.8809 377.518 57.8809H377.471V56.5742H379.469V54.7812H377.084V55.0977ZM386.705 58.4492H381.971V58.7715H386.705V58.4492ZM382.404 55.1445H383.254V57.0312H382.41V57.3359H386.225V57.0312H385.381V55.1445H386.23V54.834H382.404V55.1445ZM383.623 57.0312V55.1445H385.018V57.0312H383.623Z" fill="#1A1D29"/>
<rect width="48" height="48" transform="translate(400)" fill="#FF0000" fill-opacity="0.1"/>
<rect x="405" y="6" width="38" height="30" rx="4" stroke="#4D4F58" stroke-width="2" stroke-linecap="round"/>
<path d="M424 36V42" stroke="#4D4F58" stroke-width="2" stroke-linecap="round"/>
<path d="M412 42.5H436" stroke="#4D4F58" stroke-width="2" stroke-linecap="round"/>
<path d="M433 13V16M433 27V30M432 27H434C434.552 27 435 26.5523 435 26V17C435 16.4477 434.552 16 434 16H432C431.448 16 431 16.4477 431 17V26C431 26.5523 431.448 27 432 27Z" stroke="#14A1EB" stroke-width="2" stroke-linecap="round"/>
<path d="M424 27V30M423 27H425C425.552 27 426 26.5523 426 26V21C426 20.4477 425.552 20 425 20H423C422.448 20 422 20.4477 422 21V26C422 26.5523 422.448 27 423 27Z" stroke="#14A1EB" stroke-width="2" stroke-linecap="round"/>
<path d="M413 26C413 25.4477 413.448 25 414 25H416C416.552 25 417 25.4477 417 26V29C417 29.5523 416.552 30 416 30H414C413.448 30 413 29.5523 413 29V26Z" stroke="#14A1EB" stroke-width="2" stroke-linecap="round"/>
<path d="M415.404 55.1328V54.5527H415.047V55.1094C415.044 55.9355 414.476 56.627 413.729 56.9141L413.928 57.2129C414.531 56.9697 415.023 56.4717 415.237 55.8301C415.46 56.3984 415.94 56.8525 416.518 57.0723L416.723 56.7734C415.993 56.5186 415.404 55.8564 415.404 55.1328ZM414.414 58.5195C414.411 59.1084 415.05 59.4395 416.107 59.4395C417.162 59.4395 417.795 59.1084 417.795 58.5195C417.795 57.9365 417.162 57.5996 416.107 57.5996C415.05 57.5996 414.411 57.9365 414.414 58.5195ZM414.777 58.5195C414.774 58.1416 415.29 57.9014 416.107 57.9043C416.925 57.9014 417.438 58.1416 417.438 58.5195C417.438 58.9062 416.925 59.1406 416.107 59.1465C415.29 59.1406 414.774 58.9062 414.777 58.5195ZM417.385 57.459H417.754V55.9941H418.551V55.6777H417.754V54.2891H417.385V57.459ZM423.625 56.8145H418.914V57.125H421.088V57.7871H419.5V59.3809H423.039V57.7871H421.451V57.125H423.625V56.8145ZM419.365 54.7695H420.197V55.959H419.371V56.2754H423.15V55.959H422.33V54.7695H423.162V54.4648H419.365V54.7695ZM419.863 59.0762V58.0859H422.682V59.0762H419.863ZM420.566 55.959V54.7695H421.961V55.959H420.566ZM428.512 54.2891H428.154V56.3574H427.346V54.4062H426.994V59.1875H427.346V56.6738H428.154V59.457H428.512V54.2891ZM424.305 58.0332H426.262V54.9102H424.305V58.0332ZM424.65 57.7285V55.2148H425.91V57.7285H424.65ZM431.834 54.793V54.4824H431.453V54.793C431.453 55.5752 430.401 56.1758 429.549 56.3047L429.707 56.6094C430.469 56.4717 431.324 56.0293 431.644 55.3584C431.969 56.0205 432.827 56.4717 433.586 56.6094L433.738 56.3047C432.889 56.1758 431.831 55.5605 431.834 54.793ZM429.285 57.5469H431.453V59.457H431.811V57.5469H433.996V57.2305H429.285V57.5469Z" fill="#1A1D29"/>
<rect width="48" height="48" transform="translate(450)" fill="#FF0000" fill-opacity="0.1"/>
<path d="M454.8 41.8H493.197M458.4 12.9429L473.998 6L489.597 12.9429M454.8 17.5714H493.197M458.4 17.5714V41.8M489.597 17.5714V24M489.597 35.5714V41.8" stroke="#4D4F58" stroke-width="2" stroke-linecap="round" stroke-linejoin="round"/>
<path d="M492.5 28L494.5 30L492.5 32" stroke="#14A1EB" stroke-width="2" stroke-linecap="round" stroke-linejoin="round"/>
<path d="M489 30L481 30" stroke="#14A1EB" stroke-width="2" stroke-linecap="round" stroke-linejoin="round" stroke-dasharray="0.1 3.5"/>
<path d="M479.746 25.5C478.481 23.6865 476.379 22.5 474 22.5C470.134 22.5 467 25.634 467 29.5C467 33.366 470.134 36.5 474 36.5C476.379 36.5 478.481 35.3135 479.746 33.5" stroke="#14A1EB" stroke-width="2" stroke-linecap="round" stroke-linejoin="round"/>
<path d="M477.39 29.2919H476.098M471.792 29.2919H470.5M471.361 28L472.653 31.445L473.945 28L475.238 31.445L476.529 28" stroke="#14A1EB" stroke-width="2" stroke-linecap="round" stroke-linejoin="round"/>
<path d="M467.977 54.2891H467.607V58.0859H467.977V54.2891ZM463.805 57.0312L464.016 57.3242C464.613 57.0693 465.108 56.5332 465.328 55.8623C465.554 56.4951 466.049 56.9873 466.646 57.2305L466.846 56.9316C466.099 56.6475 465.507 55.9268 465.51 55.1035V54.5762H465.141V55.1035C465.138 55.9619 464.558 56.7295 463.805 57.0312ZM464.678 59.334H468.146V59.0234H465.047V57.7402H464.678V59.334ZM473.625 56.8789H472.424V56.1084C472.84 55.9502 473.074 55.6895 473.074 55.3379C473.074 54.7373 472.386 54.3916 471.264 54.3945C470.142 54.3916 469.453 54.7373 469.453 55.3379C469.453 55.6924 469.69 55.9561 470.115 56.1143V56.8789H468.914V57.1895H473.625V56.8789ZM469.488 58.5312C469.488 59.1172 470.153 59.4424 471.27 59.4453C472.374 59.4424 473.039 59.1172 473.039 58.5312C473.039 57.9482 472.374 57.623 471.27 57.6289C470.153 57.623 469.488 57.9482 469.488 58.5312ZM469.834 55.3379C469.828 54.9365 470.385 54.6875 471.264 54.6875C472.14 54.6875 472.699 54.9365 472.699 55.3379C472.699 55.7451 472.14 55.9883 471.264 55.9883C470.385 55.9883 469.828 55.7451 469.834 55.3379ZM469.863 58.5312C469.863 58.1533 470.402 57.9189 471.27 57.916C472.128 57.9189 472.667 58.1533 472.67 58.5312C472.667 58.915 472.128 59.1494 471.27 59.1465C470.402 59.1494 469.863 58.915 469.863 58.5312ZM470.484 56.8789V56.2139C470.713 56.2578 470.974 56.2812 471.264 56.2812C471.562 56.2812 471.829 56.2578 472.061 56.2109V56.8789H470.484ZM478.5 54.2891H478.143V56.3926H477.305V54.4121H476.959V59.1816H477.305V56.7031H478.143V59.457H478.5V54.2891ZM474.305 58.1445H474.627C475.456 58.1387 475.975 58.1152 476.596 57.9805L476.555 57.6641C475.969 57.793 475.468 57.8223 474.674 57.8223V55.2383H476.244V54.9277H474.305V58.1445ZM483.996 56.6211H479.285V56.9141H481.453V57.4473H479.865V57.7344H483.018V58.25H479.883V59.3926H483.539V59.0938H480.24V58.5254H483.375V57.4473H481.822V56.9141H483.996V56.6211ZM479.561 56.0586L479.678 56.3516C480.501 56.2725 481.333 55.9941 481.641 55.4609C481.945 55.9941 482.78 56.2725 483.604 56.3516L483.721 56.0586C482.821 55.9941 481.893 55.6543 481.843 55.0566H483.504V54.7578H481.822V54.248H481.459V54.7578H479.783V55.0566H481.438C481.383 55.6543 480.454 55.9941 479.561 56.0586Z" fill="#1A1D29"/>
<rect width="48" height="48" transform="translate(500)" fill="#FF0000" fill-opacity="0.1"/>
<path d="M504.8 41.8H543.197M508.4 12.9429L523.998 6L539.597 12.9429M504.8 17.5714H543.197M508.4 17.5714V41.8M539.597 17.5714V23M539.597 36.5V41.8" stroke="#4D4F58" stroke-width="2" stroke-linecap="round" stroke-linejoin="round"/>
<path d="M533.7 26.0887L536.654 26.0887C537.573 26.0887 538.454 26.4538 539.104 27.1036C540.457 28.4567 540.457 30.6506 539.104 32.0038C538.454 32.6536 537.573 33.0186 536.654 33.0186H533.7M529.074 33.0186L525.9 33.0186C524.981 33.0186 524.1 32.6536 523.45 32.0038C522.097 30.6506 522.097 28.4567 523.45 27.1036C524.1 26.4538 524.981 26.0887 525.9 26.0887L529.074 26.0887M534.625 29.5537L528.149 29.5537" stroke="#14A1EB" stroke-width="2" stroke-linecap="round" stroke-linejoin="round"/>
<path d="M512.488 54.2891H512.119V55.1328H510.722C510.487 54.8164 510.101 54.626 509.646 54.623C508.876 54.6289 508.313 55.1533 508.316 55.9062C508.313 56.6592 508.876 57.1836 509.646 57.1836C510.106 57.1836 510.496 56.9902 510.73 56.668H512.119V58.127H512.488V54.2891ZM508.668 55.9062C508.671 55.3643 509.078 54.96 509.646 54.957C510.197 54.96 510.613 55.3643 510.613 55.9062C510.613 56.4512 510.197 56.8555 509.646 56.8555C509.078 56.8555 508.671 56.4512 508.668 55.9062ZM509.207 59.334H512.641V59.0234H509.576V57.7168H509.207V59.334ZM510.892 55.4434H512.119V56.3574H510.895C510.944 56.2197 510.971 56.0674 510.971 55.9062C510.971 55.7393 510.941 55.584 510.892 55.4434ZM517.51 54.5762H514.023V54.8867H517.141V54.9512C517.144 55.3525 517.144 55.8301 516.988 56.498H513.414V56.8086H518.148V56.498H517.36C517.507 55.8359 517.507 55.3525 517.51 54.9512V54.5762ZM514.006 59.3809H517.539V57.5703H514.006V59.3809ZM514.369 59.0762V57.8691H517.176V59.0762H514.369ZM523.006 54.2891H522.648V59.457H523.006V54.2891ZM518.623 58.0566L518.846 58.3262C519.827 57.7373 520.41 56.9404 520.662 56.0586H521.611V57.0488H520.58V57.3594H521.611V59.1816H521.969V54.4355H521.611V55.748H520.738C520.791 55.4902 520.814 55.2236 520.814 54.957H518.828V55.2734H520.454C520.369 56.3721 519.769 57.3711 518.623 58.0566ZM525.561 55.2207V55.1035H526.762V54.793H523.979V55.1035H525.186V55.2207C525.186 55.9648 524.582 56.5742 523.832 56.8145L524.02 57.1133C524.638 56.8994 525.156 56.4541 525.376 55.8623C525.596 56.4131 526.094 56.8291 526.697 57.0254L526.879 56.7324C526.144 56.501 525.555 55.915 525.561 55.2207ZM523.721 58.0215L523.779 58.3379C524.688 58.3379 525.93 58.3379 527.055 58.1445L527.025 57.8633C526.56 57.9307 526.056 57.9688 525.561 57.9893V56.8965H525.191V58.0039C524.661 58.0215 524.151 58.0215 523.721 58.0215ZM527.377 59.457H527.74V56.791H528.631V56.4688H527.74V54.2891H527.377V59.457ZM533.371 54.2891H533.008V56.416H532.205V54.4297H531.854V59.1875H532.205V56.7266H533.008V59.457H533.371V54.2891ZM528.994 58.0625L529.217 58.332C530.714 57.5029 531.186 56.2432 531.186 54.9688H529.176V55.2793H530.825C530.761 56.3633 530.254 57.374 528.994 58.0625ZM538.416 54.2891H538.047V55.2969H536.84V55.6074H538.047V56.9727H538.416V54.2891ZM534.162 56.6797L534.367 56.9785C534.977 56.7471 535.472 56.2754 535.688 55.6572C535.914 56.2051 536.403 56.6328 536.975 56.8438L537.18 56.5508C536.447 56.3047 535.853 55.6748 535.855 54.9746V54.4473H535.504V54.9746C535.498 55.7627 534.915 56.416 534.162 56.6797ZM535.094 57.5586H538.053V58.1387H535.111V59.3809H538.627V59.0762H535.469V58.4316H538.416V57.2539H535.094V57.5586Z" fill="#1A1D29"/>
<rect width="48" height="48" transform="translate(550)" fill="#FF0000" fill-opacity="0.1"/>
<path d="M578.002 40.9991H581.716C584.556 40.9991 586.859 38.6965 586.859 35.8562M578.002 40.9991C578.002 42.6559 576.659 43.9993 575.002 43.9993C573.345 43.9993 572.002 42.6561 572.002 40.9993C572.002 39.3424 573.345 37.9993 575.002 37.9993C576.659 37.9993 578.002 39.3422 578.002 40.9991Z" stroke="#14A1EB" stroke-width="2" stroke-linecap="round" stroke-linejoin="round"/>
<path d="M586.857 20.4288C585.437 20.4288 584.286 21.5801 584.286 23.0002V33.286C584.286 34.7061 585.437 35.8574 586.857 35.8574C589.697 35.8574 592 33.5548 592 30.7145V25.5717M592 29.4288V23.0002C592 13.0591 583.941 5.00024 574 5.00024C564.059 5.00024 556 13.0591 556 23.0002V29.4288M561.143 35.8574C562.563 35.8574 563.714 34.7061 563.714 33.286V23.0002C563.714 21.5801 562.563 20.4288 561.143 20.4288C558.303 20.4288 556 22.7313 556 25.5717V30.7145C556 33.5548 558.303 35.8574 561.143 35.8574Z" stroke="#4D4F58" stroke-width="2" stroke-linecap="round" stroke-linejoin="round"/>
<path d="M559.977 54.2891H559.607V58.0918H559.977V54.2891ZM555.863 55.918C555.86 56.665 556.432 57.1807 557.199 57.1777C557.964 57.1807 558.532 56.665 558.535 55.918C558.532 55.1797 557.964 54.6641 557.199 54.6641C556.432 54.6641 555.86 55.1797 555.863 55.918ZM556.221 55.918C556.221 55.3848 556.64 54.9893 557.199 54.9863C557.753 54.9893 558.175 55.3848 558.178 55.918C558.175 56.46 557.753 56.8525 557.199 56.8496C556.64 56.8525 556.221 56.46 556.221 55.918ZM556.678 59.334H560.146V59.0234H557.047V57.6992H556.678V59.334ZM563.252 57.5645C562.15 57.5674 561.453 57.9131 561.453 58.5078C561.453 59.0938 562.15 59.4395 563.252 59.4395C564.356 59.4395 565.057 59.0938 565.062 58.5078C565.057 57.9131 564.356 57.5674 563.252 57.5645ZM560.914 57.0371H565.625V56.7324H563.287V55.7012H562.924V56.7324H560.914V57.0371ZM561.482 54.8691H564.646V55.0039C564.646 55.4111 564.646 55.7949 564.506 56.3281L564.869 56.3691C565.01 55.8359 565.01 55.4229 565.01 55.0039V54.5586H561.482V54.8691ZM561.822 58.5078C561.816 58.1123 562.394 57.8604 563.252 57.8574C564.116 57.8604 564.685 58.1123 564.688 58.5078C564.685 58.8916 564.116 59.1406 563.252 59.1406C562.394 59.1406 561.816 58.8916 561.822 58.5078ZM567.898 55.9355V55.1445H569.176V54.8281H566.27V55.1445H567.529V55.9355C567.526 56.832 566.814 57.8164 566.111 58.1621L566.334 58.4551C566.914 58.1562 567.477 57.4707 567.72 56.6973C567.96 57.4326 568.525 58.0479 569.123 58.3262L569.334 58.0332C568.607 57.7139 567.898 56.8232 567.898 55.9355ZM569.973 59.457H570.342V54.2891H569.973V59.457ZM575.451 55.7832H572.311V54.3945H571.947V56.0938H575.451V55.7832ZM571.285 57.0605H575.996V56.75H571.285V57.0605ZM571.859 58.502C571.859 59.0938 572.527 59.4307 573.641 59.4336C574.745 59.4307 575.41 59.0938 575.41 58.502C575.41 57.9014 574.745 57.5674 573.641 57.5645C572.527 57.5674 571.859 57.9014 571.859 58.502ZM572.234 58.502C572.234 58.1035 572.773 57.8691 573.641 57.8633C574.499 57.8691 575.038 58.1035 575.041 58.502C575.038 58.8916 574.499 59.1348 573.641 59.1348C572.773 59.1348 572.234 58.8916 572.234 58.502ZM580.719 54.2891H580.355V59.4629H580.719V54.2891ZM576.77 55.0977H578.785V56.2637H576.775V58.1973H577.203C578.073 58.1973 578.864 58.1562 579.846 58.0039L579.811 57.6875C578.841 57.8428 578.056 57.8809 577.203 57.8809H577.156V56.5742H579.154V54.7812H576.77V55.0977ZM583.426 55.748V54.752H583.057V55.748C583.054 56.6914 582.392 57.6846 581.674 58.0508L581.914 58.3438C582.494 58.0273 583.021 57.333 583.247 56.5391C583.476 57.2949 584.006 57.9453 584.592 58.25L584.814 57.9453C584.097 57.6084 583.429 56.668 583.426 55.748ZM584.252 56.4043H585.553V59.4629H585.916V54.2891H585.553V56.0938H584.252V56.4043ZM591.084 54.2891H590.715V59.457H591.084V54.2891ZM586.971 58.1562L587.188 58.4375C587.776 58.1504 588.312 57.5352 588.541 56.7793C588.778 57.4971 589.317 58.0742 589.912 58.3496L590.129 58.0566C589.376 57.7344 588.714 56.8965 588.711 55.9883V55.5078H589.953V55.2031H588.717V54.3711H588.348V55.2031H587.1V55.5078H588.354V55.9883C588.354 56.9375 587.709 57.8105 586.971 58.1562Z" fill="#1A1D29"/>
<defs>
<clipPath id="clip0_9685_71422">
<rect width="48" height="48" fill="white" transform="translate(50)"/>
</clipPath>
<clipPath id="clip1_9685_71422">
<rect width="48" height="48" fill="white" transform="translate(100)"/>
</clipPath>
<clipPath id="clip2_9685_71422">
<rect width="48" height="48" fill="white" transform="translate(150)"/>
</clipPath>
<clipPath id="clip3_9685_71422">
<rect width="48" height="48" fill="white" transform="translate(200)"/>
</clipPath>
<clipPath id="clip4_9685_71422">
<rect width="48" height="48" fill="white" transform="translate(250)"/>
</clipPath>
</defs>
</svg>
