<?xml version="1.0" standalone="no"?>
<!DOCTYPE svg PUBLIC "-//W3C//DTD SVG 20010904//EN"
 "http://www.w3.org/TR/2001/REC-SVG-20010904/DTD/svg10.dtd">
<svg 
 width="48.000000pt" height="48.000000pt" viewBox="0 0 48.000000 48.000000"
 preserveAspectRatio="xMidYMid meet">

<g transform="translate(0.000000,48.000000) scale(0.100000,-0.100000)"
fill="#000000" stroke="none">
<path d="M130 403 c-45 -23 -73 -75 -66 -127 6 -53 34 -88 84 -106 37 -13 47
-13 84 0 l41 15 53 -55 c44 -45 55 -53 66 -42 11 11 3 22 -42 66 l-55 53 15
41 c13 37 13 47 0 84 -27 75 -109 107 -180 71z m121 -52 c39 -40 39 -82 0
-122 -20 -20 -39 -29 -61 -29 -43 0 -90 47 -90 90 0 43 47 90 90 90 22 0 41
-9 61 -29z"/>
</g>
</svg>
